<svg width="398" height="350" viewBox="0 0 398 350" fill="none" xmlns="http://www.w3.org/2000/svg">
<path d="M326 169.975C326 169.975 329.1 161.075 338.4 160.775C347.7 160.575 344.4 166.275 354.1 165.375C363.9 164.475 360.3 153.475 375.5 151.175C390.7 148.875 397.2 169.975 397.2 169.975H326Z" fill="white"/>
<path d="M65 37.1287C65 37.1287 67.3 30.4287 74.2 30.3287C81.1 30.1287 78.6 34.4287 85.9 33.7287C93.2 33.0287 90.5 24.8287 101.9 23.1287C113.3 21.4287 118.1 37.1287 118.1 37.1287H65Z" fill="white"/>
<path d="M283 14.1287C283 14.1287 285.3 7.42873 292.2 7.32873C299.1 7.12873 296.6 11.4287 303.9 10.7287C311.2 10.0287 308.5 1.82872 319.9 0.128725C331.3 -1.57128 336.1 14.1287 336.1 14.1287H283Z" fill="white"/>
<path d="M0 188.612C0 188.612 2.1 182.612 8.3 182.512C14.5 182.312 12.3 186.212 18.8 185.612C25.3 185.012 22.9 177.712 33.1 176.112C43.3 174.612 47.6 188.612 47.6 188.612H0Z" fill="white"/>
<g opacity="0.4">
<path d="M244.4 349.629H143.1C138.7 349.629 135.2 346.129 135.2 341.729V257.129C135.2 252.729 138.7 249.229 143.1 249.229H244.4C248.8 249.229 252.3 252.729 252.3 257.129V341.729C252.3 346.129 248.8 349.629 244.4 349.629Z" fill="#A8A8A8"/>
<path d="M178 292.829H154.7C153 292.829 151.5 291.429 151.5 289.629V266.329C151.5 264.629 152.9 263.129 154.7 263.129H178C179.7 263.129 181.2 264.529 181.2 266.329V289.629C181.1 291.429 179.7 292.829 178 292.829Z" fill="white"/>
<path d="M191.2 272.529H218" stroke="black" stroke-width="1.3" stroke-miterlimit="10" stroke-linecap="round" stroke-linejoin="round"/>
<path d="M191.2 282.029H234.4" stroke="black" stroke-width="1.3" stroke-miterlimit="10" stroke-linecap="round" stroke-linejoin="round"/>
<path d="M151.6 305.129H181.1" stroke="white" stroke-width="1.3" stroke-miterlimit="10" stroke-linecap="round" stroke-linejoin="round"/>
<path d="M151.6 314.929H234.4" stroke="white" stroke-width="1.3" stroke-miterlimit="10" stroke-linecap="round" stroke-linejoin="round"/>
<path d="M151.6 325.829H234.4" stroke="white" stroke-width="1.3" stroke-miterlimit="10" stroke-linecap="round" stroke-linejoin="round"/>
</g>
<path d="M91.2366 104.714C94.2746 91.9819 86.4162 79.1979 73.6844 76.1599C60.9526 73.1219 48.1686 80.9803 45.1307 93.7121C42.0927 106.444 49.9511 119.228 62.6829 122.266C75.4147 125.304 88.1987 117.446 91.2366 104.714Z" fill="#FFC20C"/>
<path d="M58.5996 100.329L66.0996 105.929L78.7996 92.6288" stroke="white" stroke-width="2.1361" stroke-miterlimit="10" stroke-linecap="round" stroke-linejoin="round"/>
<g opacity="0.4">
<path d="M160.9 227.829H81.3997C78.4997 227.829 76.1997 225.529 76.1997 222.629V167.229C76.1997 164.329 78.4997 162.029 81.3997 162.029H160.9C163.8 162.029 166.1 164.329 166.1 167.229V222.629C166.1 225.529 163.7 227.829 160.9 227.829Z" fill="#6F6F6F"/>
<path fill-rule="evenodd" clip-rule="evenodd" d="M107.7 189.201C108.363 189.201 108.9 189.738 108.9 190.401V201.219C108.9 201.882 108.363 202.419 107.7 202.419C107.037 202.419 106.5 201.882 106.5 201.219V190.401C106.5 189.738 107.037 189.201 107.7 189.201ZM105.536 204.347C104.874 204.347 104.336 204.884 104.336 205.547C104.336 206.209 104.874 206.747 105.536 206.747H135.828C136.49 206.747 137.028 206.209 137.028 205.547C137.028 204.884 136.49 204.347 135.828 204.347H105.536ZM105.536 208.674C104.874 208.674 104.336 209.211 104.336 209.874C104.336 210.537 104.874 211.074 105.536 211.074H135.828C136.49 211.074 137.028 210.537 137.028 209.874C137.028 209.211 136.49 208.674 135.828 208.674H105.536ZM113.227 190.401C113.227 189.738 112.69 189.201 112.027 189.201C111.365 189.201 110.827 189.738 110.827 190.401V201.219C110.827 201.882 111.365 202.419 112.027 202.419C112.69 202.419 113.227 201.882 113.227 201.219V190.401ZM118.518 189.201C119.181 189.201 119.718 189.738 119.718 190.401V201.219C119.718 201.882 119.181 202.419 118.518 202.419C117.856 202.419 117.318 201.882 117.318 201.219V190.401C117.318 189.738 117.856 189.201 118.518 189.201ZM124.046 190.401C124.046 189.738 123.508 189.201 122.846 189.201C122.183 189.201 121.646 189.738 121.646 190.401V201.219C121.646 201.882 122.183 202.419 122.846 202.419C123.508 202.419 124.046 201.882 124.046 201.219V190.401ZM129.337 189.201C129.999 189.201 130.537 189.738 130.537 190.401V201.219C130.537 201.882 129.999 202.419 129.337 202.419C128.674 202.419 128.137 201.882 128.137 201.219V190.401C128.137 189.738 128.674 189.201 129.337 189.201ZM134.864 190.401C134.864 189.738 134.327 189.201 133.664 189.201C133.001 189.201 132.464 189.738 132.464 190.401V201.219C132.464 201.882 133.001 202.419 133.664 202.419C134.327 202.419 134.864 201.882 134.864 201.219V190.401Z" fill="white"/>
<path d="M135.828 186.074H105.537L119.512 177.762C119.861 177.538 120.267 177.419 120.682 177.419C121.097 177.419 121.503 177.538 121.852 177.762L135.828 186.074Z" fill="white"/>
</g>
<path d="M277.5 152.429H140.5C136.1 152.429 132.6 148.929 132.6 144.529V59.9288C132.6 55.5288 136.1 52.0288 140.5 52.0288H277.5C281.9 52.0288 285.4 55.5288 285.4 59.9288V144.529C285.4 148.829 281.8 152.429 277.5 152.429Z" fill="white"/>
<path d="M168.3 101.829H147.9C146.4 101.829 145.1 100.629 145.1 99.0287V78.6287C145.1 77.1287 146.3 75.8287 147.9 75.8287H168.3C169.8 75.8287 171.1 77.0287 171.1 78.6287V99.0287C171 100.629 169.8 101.829 168.3 101.829Z" fill="#A8A8A8"/>
<path d="M201.3 101.829H180.9C179.4 101.829 178.1 100.629 178.1 99.0287V78.6287C178.1 77.1287 179.3 75.8287 180.9 75.8287H201.3C202.8 75.8287 204.1 77.0287 204.1 78.6287V99.0287C204.1 100.629 202.8 101.829 201.3 101.829Z" fill="#A8A8A8"/>
<path d="M234.4 101.829H214C212.5 101.829 211.2 100.629 211.2 99.0287V78.6287C211.2 77.1287 212.4 75.8287 214 75.8287H234.4C235.9 75.8287 237.2 77.0287 237.2 78.6287V99.0287C237.1 100.629 235.9 101.829 234.4 101.829Z" fill="#A8A8A8"/>
<path d="M267.4 101.829H247C245.5 101.829 244.2 100.629 244.2 99.0287V78.6287C244.2 77.1287 245.4 75.8287 247 75.8287H267.4C268.9 75.8287 270.2 77.0287 270.2 78.6287V99.0287C270.2 100.629 268.9 101.829 267.4 101.829Z" fill="#FFC20C"/>
<path d="M168.3 136.829H147.9C146.4 136.829 145.1 135.629 145.1 134.029V113.629C145.1 112.129 146.3 110.829 147.9 110.829H168.3C169.8 110.829 171.1 112.029 171.1 113.629V134.029C171 135.629 169.8 136.829 168.3 136.829Z" fill="#A8A8A8"/>
<path d="M201.3 136.829H180.9C179.4 136.829 178.1 135.629 178.1 134.029V113.629C178.1 112.129 179.3 110.829 180.9 110.829H201.3C202.8 110.829 204.1 112.029 204.1 113.629V134.029C204.1 135.629 202.8 136.829 201.3 136.829Z" fill="#A8A8A8"/>
<path d="M234.4 136.829H214C212.5 136.829 211.2 135.629 211.2 134.029V113.629C211.2 112.129 212.4 110.829 214 110.829H234.4C235.9 110.829 237.2 112.029 237.2 113.629V134.029C237.1 135.629 235.9 136.829 234.4 136.829Z" fill="#A8A8A8"/>
<path d="M267.4 136.829H247C245.5 136.829 244.2 135.629 244.2 134.029V113.629C244.2 112.129 245.4 110.829 247 110.829H267.4C268.9 110.829 270.2 112.029 270.2 113.629V134.029C270.2 135.629 268.9 136.829 267.4 136.829Z" fill="#A8A8A8"/>
<path d="M152.198 64.0038H147.67V67.7067H152.93V68.8334H146.292V58.3849H152.859V59.5187H147.67V62.8772H152.198V64.0038ZM157.408 67.8933C157.882 67.8933 158.296 67.7498 158.65 67.4627C159.004 67.1757 159.2 66.8169 159.238 66.3863H160.494C160.47 66.8312 160.317 67.2546 160.035 67.6565C159.752 68.0583 159.375 68.3789 158.901 68.6181C158.432 68.8573 157.935 68.9769 157.408 68.9769C156.351 68.9769 155.509 68.6253 154.882 67.922C154.26 67.214 153.949 66.2476 153.949 65.0228V64.8004C153.949 64.0445 154.088 63.3723 154.366 62.7839C154.643 62.1954 155.04 61.7385 155.557 61.4132C156.078 61.0879 156.693 60.9252 157.401 60.9252C158.272 60.9252 158.994 61.186 159.568 61.7074C160.147 62.2289 160.456 62.9059 160.494 63.7383H159.238C159.2 63.236 159.009 62.8245 158.664 62.504C158.324 62.1787 157.903 62.016 157.401 62.016C156.727 62.016 156.203 62.26 155.829 62.748C155.461 63.2312 155.277 63.932 155.277 64.8506V65.1018C155.277 65.9964 155.461 66.6853 155.829 67.1685C156.198 67.6517 156.724 67.8933 157.408 67.8933ZM161.635 64.8793C161.635 64.1186 161.783 63.4345 162.08 62.8269C162.381 62.2193 162.798 61.7505 163.329 61.4204C163.864 61.0903 164.474 60.9252 165.159 60.9252C166.216 60.9252 167.07 61.2912 167.72 62.0232C168.376 62.7552 168.704 63.7287 168.704 64.9439V65.0372C168.704 65.7931 168.558 66.4724 168.266 67.0752C167.979 67.6732 167.565 68.1397 167.024 68.4746C166.489 68.8095 165.871 68.9769 165.173 68.9769C164.12 68.9769 163.266 68.6109 162.611 67.8789C161.96 67.147 161.635 66.1782 161.635 64.9726V64.8793ZM162.97 65.0372C162.97 65.8983 163.168 66.5896 163.565 67.1111C163.967 67.6326 164.503 67.8933 165.173 67.8933C165.847 67.8933 166.383 67.6302 166.78 67.1039C167.177 66.5729 167.376 65.8313 167.376 64.8793C167.376 64.0277 167.173 63.3388 166.766 62.8126C166.364 62.2815 165.828 62.016 165.159 62.016C164.503 62.016 163.974 62.2767 163.573 62.7982C163.171 63.3197 162.97 64.066 162.97 65.0372ZM177.301 64.176C176.119 63.8364 175.258 63.4201 174.717 62.9274C174.181 62.4298 173.913 61.8175 173.913 61.0903C173.913 60.2674 174.241 59.5881 174.897 59.0523C175.557 58.5116 176.413 58.2413 177.466 58.2413C178.183 58.2413 178.822 58.3801 179.382 58.6576C179.946 58.935 180.382 59.3178 180.688 59.8057C180.999 60.2937 181.154 60.8272 181.154 61.406H179.769C179.769 60.7745 179.568 60.2794 179.166 59.9206C178.765 59.557 178.198 59.3752 177.466 59.3752C176.786 59.3752 176.255 59.5259 175.873 59.8273C175.495 60.1239 175.306 60.5377 175.306 61.0688C175.306 61.4945 175.485 61.8557 175.844 62.1524C176.207 62.4442 176.822 62.7121 177.688 62.9561C178.559 63.2001 179.238 63.4704 179.726 63.767C180.219 64.0588 180.583 64.4009 180.817 64.7932C181.056 65.1855 181.176 65.6472 181.176 66.1782C181.176 67.025 180.846 67.7043 180.185 68.2162C179.525 68.7233 178.643 68.9769 177.537 68.9769C176.82 68.9769 176.15 68.8406 175.528 68.5679C174.906 68.2904 174.425 67.9124 174.086 67.434C173.751 66.9556 173.583 66.4126 173.583 65.805H174.968C174.968 66.4365 175.2 66.9365 175.664 67.3048C176.133 67.6684 176.758 67.8502 177.537 67.8502C178.265 67.8502 178.822 67.7019 179.209 67.4053C179.597 67.1087 179.791 66.7044 179.791 66.1925C179.791 65.6806 179.611 65.286 179.253 65.0085C178.894 64.7262 178.243 64.4487 177.301 64.176ZM185.281 66.8886L187.089 61.0688H188.51L185.388 70.0318C184.905 71.3235 184.137 71.9694 183.085 71.9694L182.833 71.9478L182.338 71.8545V70.7781L182.697 70.8068C183.147 70.8068 183.496 70.7159 183.745 70.5341C183.998 70.3523 184.206 70.0198 184.369 69.5366L184.663 68.7473L181.893 61.0688H183.343L185.281 66.8886ZM194.222 66.7738C194.222 66.415 194.086 66.1375 193.813 65.9414C193.545 65.7404 193.074 65.5682 192.399 65.4247C191.729 65.2812 191.196 65.1089 190.799 64.908C190.407 64.7071 190.115 64.4679 189.923 64.1904C189.737 63.9129 189.644 63.5828 189.644 63.2001C189.644 62.5638 189.912 62.0256 190.447 61.5854C190.988 61.1453 191.677 60.9252 192.514 60.9252C193.394 60.9252 194.107 61.1525 194.653 61.607C195.203 62.0615 195.478 62.6427 195.478 63.3508H194.143C194.143 62.9872 193.988 62.6738 193.677 62.4107C193.37 62.1476 192.983 62.016 192.514 62.016C192.031 62.016 191.653 62.1213 191.38 62.3318C191.108 62.5423 190.971 62.8173 190.971 63.157C190.971 63.4776 191.098 63.7192 191.352 63.8818C191.605 64.0445 192.062 64.2 192.722 64.3483C193.387 64.4966 193.925 64.6736 194.337 64.8793C194.748 65.085 195.052 65.3338 195.248 65.6256C195.449 65.9127 195.55 66.2643 195.55 66.6805C195.55 67.3742 195.272 67.9316 194.717 68.3526C194.162 68.7688 193.442 68.9769 192.557 68.9769C191.935 68.9769 191.385 68.8669 190.907 68.6468C190.428 68.4267 190.053 68.1205 189.78 67.7282C189.512 67.3312 189.378 66.903 189.378 66.4437H190.706C190.73 66.8886 190.907 67.2427 191.237 67.5058C191.572 67.7641 192.012 67.8933 192.557 67.8933C193.059 67.8933 193.461 67.7928 193.763 67.5919C194.069 67.3862 194.222 67.1135 194.222 66.7738ZM199.08 59.1886V61.0688H200.53V62.0949H199.08V66.9102C199.08 67.2211 199.145 67.4555 199.274 67.6134C199.403 67.7665 199.623 67.8431 199.934 67.8431C200.087 67.8431 200.298 67.8144 200.566 67.7569V68.8334C200.217 68.9291 199.877 68.9769 199.547 68.9769C198.954 68.9769 198.506 68.7975 198.205 68.4387C197.903 68.0799 197.753 67.5704 197.753 66.9102V62.0949H196.339V61.0688H197.753V59.1886H199.08ZM205.309 68.9769C204.257 68.9769 203.4 68.6324 202.74 67.9435C202.08 67.2498 201.75 66.3241 201.75 65.1664V64.9224C201.75 64.1521 201.896 63.4656 202.188 62.8628C202.484 62.2552 202.896 61.7816 203.422 61.4419C203.953 61.0975 204.527 60.9252 205.144 60.9252C206.154 60.9252 206.938 61.2577 207.498 61.9227C208.058 62.5877 208.338 63.5398 208.338 64.7788V65.3314H203.077C203.097 66.0969 203.319 66.7164 203.745 67.19C204.175 67.6589 204.721 67.8933 205.381 67.8933C205.85 67.8933 206.247 67.7976 206.572 67.6062C206.898 67.4149 207.182 67.1613 207.426 66.8456L208.237 67.4771C207.586 68.477 206.61 68.9769 205.309 68.9769ZM205.144 62.016C204.608 62.016 204.159 62.2122 203.795 62.6045C203.431 62.992 203.207 63.5374 203.12 64.2406H207.01V64.1402C206.972 63.4656 206.79 62.9441 206.465 62.5758C206.139 62.2026 205.699 62.016 205.144 62.016ZM211.129 61.0688L211.165 61.9299C211.734 61.2601 212.502 60.9252 213.469 60.9252C214.555 60.9252 215.294 61.3415 215.686 62.1739C215.944 61.8007 216.279 61.4993 216.691 61.2697C217.107 61.0401 217.597 60.9252 218.162 60.9252C219.865 60.9252 220.731 61.827 220.759 63.6306V68.8334H219.432V63.7096C219.432 63.1546 219.305 62.7408 219.052 62.4681C218.798 62.1906 218.372 62.0519 217.774 62.0519C217.281 62.0519 216.872 62.2002 216.547 62.4968C216.222 62.7886 216.033 63.1833 215.98 63.6809V68.8334H214.645V63.7455C214.645 62.6164 214.093 62.0519 212.988 62.0519C212.117 62.0519 211.521 62.4227 211.201 63.1642V68.8334H209.873V61.0688H211.129Z" fill="#FFC20C"/>
<path d="M280.2 227.829H190.6C187.7 227.829 185.4 225.529 185.4 222.629V167.229C185.4 164.329 187.7 162.029 190.6 162.029H280.2C283.1 162.029 285.4 164.329 285.4 167.229V222.629C285.4 225.529 283.1 227.829 280.2 227.829Z" fill="white"/>
<path d="M271.8 184.529H200.7C199.2 184.529 197.9 183.329 197.9 181.729V172.329C197.9 170.829 199.1 169.529 200.7 169.529H271.8C273.3 169.529 274.6 170.729 274.6 172.329V181.729C274.6 183.229 273.3 184.529 271.8 184.529Z" fill="#A8A8A8"/>
<path d="M199 194.329H233.9" stroke="black" stroke-width="1.3" stroke-miterlimit="10" stroke-linecap="round" stroke-linejoin="round"/>
<path d="M199 202.829H273.6" stroke="black" stroke-width="1.3" stroke-miterlimit="10" stroke-linecap="round" stroke-linejoin="round"/>
<path d="M199 212.129H273.6" stroke="black" stroke-width="1.3" stroke-miterlimit="10" stroke-linecap="round" stroke-linejoin="round"/>
<path d="M328.3 328.229H276.3C272.8 328.229 270 325.429 270 321.929V276.829C270 273.329 272.8 270.529 276.3 270.529H328.3C331.8 270.529 334.6 273.329 334.6 276.829V321.929C334.6 325.429 331.8 328.229 328.3 328.229Z" fill="#FFC20C"/>
<path d="M315.1 296.829L313 296.429C312.8 295.529 312.4 294.629 311.9 293.829L313.1 292.029C313.6 291.429 313.5 290.529 312.9 289.929L311.6 288.629C311 288.129 310.2 288.029 309.5 288.529L307.7 289.729C306.9 289.229 306 288.929 305.1 288.629L304.7 286.429C304.6 285.629 303.9 285.129 303.1 285.029H301.3C300.5 285.029 299.8 285.629 299.7 286.429L299.3 288.529C298.4 288.729 297.5 289.129 296.7 289.629L294.9 288.429C294.3 287.929 293.4 288.029 292.8 288.629L291.5 289.929C290.9 290.529 290.9 291.329 291.3 292.029L292.5 293.829C292 294.629 291.7 295.529 291.4 296.429L289.3 296.829C288.5 296.929 287.9 297.629 287.9 298.429V300.229C287.9 301.029 288.5 301.729 289.3 301.829L291.4 302.229C291.6 303.129 292 304.029 292.5 304.829L291.3 306.629C290.8 307.229 290.9 308.129 291.5 308.729L292.8 310.029C293.4 310.629 294.2 310.629 294.9 310.229L296.7 309.029C297.5 309.529 298.4 309.829 299.3 310.129L299.7 312.229C299.8 313.029 300.5 313.629 301.3 313.629H303.1C303.9 313.629 304.6 313.029 304.7 312.229L305.1 310.129C306 309.929 306.9 309.529 307.7 309.029L309.4 310.229C310 310.729 310.9 310.629 311.5 310.029L312.8 308.729C313.4 308.129 313.4 307.329 313 306.629L311.8 304.829C312.3 304.029 312.6 303.129 312.9 302.229L315 301.829C315.8 301.729 316.4 301.029 316.4 300.229V298.429C316.4 297.729 315.9 297.029 315.1 296.829ZM302.3 305.029C299.2 305.029 296.7 302.529 296.7 299.429C296.7 296.329 299.2 293.829 302.3 293.829C305.4 293.829 307.9 296.329 307.9 299.429C307.9 302.529 305.4 305.029 302.3 305.029Z" fill="white"/>
</svg>
